<svg width="150" height="52" fill="none" xmlns="http://www.w3.org/2000/svg">
  <path fill-rule="evenodd" clip-rule="evenodd" d="M19.66 8.753c8.82.94 15.71 8.31 15.71 17.38l-.01.01c0 9.07-6.89 16.83-15.71 17.83v7.89h-3.93v-19.67h3.08a5.958 5.958 0 0 0 4.81-5.85c0-3.28-2.66-5.95-5.94-5.95h-5.88v31.47H7.86v-7.88H0V8.593h7.87V.733h3.93v11.79H3.93v27.53h3.93v-23.59h9.81c5.45 0 9.88 4.43 9.88 9.88 0 4.78-3.38 8.86-7.89 9.79v3.87c6.64-.98 11.77-6.97 11.77-13.87 0-7.55-6.14-13.56-13.69-13.56h-2.01V.733h3.93v8.02Zm65.42 15.11c.4.12.76.27 1.09.45l-.02-.02c.36.2.65.47.87.8.23.35.34.8.34 1.3s-.14.97-.41 1.4c-.28.43-.7.78-1.25 1.03-.54.25-1.21.37-2.01.37-.69 0-1.35-.11-1.98-.32-.64-.21-1.15-.5-1.53-.85l-.2-.19.78-1.64.37.32c.28.26.66.47 1.12.64.46.17.94.26 1.44.26.44 0 .81-.05 1.07-.15.24-.09.41-.2.51-.34.1-.13.15-.28.15-.45 0-.19-.05-.32-.17-.43a1.78 1.78 0 0 0-.61-.35c-.29-.1-.61-.19-.96-.27-.36-.08-.74-.18-1.12-.29-.39-.11-.75-.27-1.08-.45-.36-.2-.65-.47-.87-.81-.23-.34-.34-.8-.34-1.31s.13-.98.4-1.41c.27-.43.68-.78 1.23-1.03.53-.25 1.2-.37 2-.37.53 0 1.05.07 1.57.21.53.14.99.34 1.38.61l.25.17-.69 1.67-.38-.25c-.32-.22-.68-.38-1.04-.48-.37-.1-.73-.15-1.08-.15-.43 0-.78.06-1.04.16-.24.09-.41.21-.51.35-.1.14-.15.3-.15.47 0 .19.06.33.17.44.15.15.36.26.61.35.29.1.62.19.97.27l.109.027c.336.081.677.164 1.011.263Zm-9.64-2.76a4.77 4.77 0 0 0-1.56-.99c-.59-.23-1.24-.35-1.93-.35s-1.35.12-1.95.35c-.59.24-1.12.57-1.56 1a4.625 4.625 0 0 0-1.4 3.37 4.625 4.625 0 0 0 1.4 3.37c.44.43.96.76 1.56 1 .6.24 1.25.35 1.94.35s1.34-.12 1.93-.35a4.567 4.567 0 0 0 2.59-2.49c.24-.57.36-1.2.36-1.88 0-.68-.12-1.31-.36-1.88-.24-.57-.59-1.08-1.03-1.5h.01Zm-.79 4.54c-.15.35-.35.66-.61.92s-.57.46-.92.6c-.35.14-.75.22-1.17.22-.42 0-.82-.07-1.18-.22-.35-.14-.67-.35-.93-.61s-.47-.57-.62-.92c-.15-.35-.22-.74-.22-1.16 0-.42.07-.81.22-1.16.15-.35.35-.66.62-.92.26-.26.57-.46.93-.61.35-.14.75-.22 1.18-.22.43 0 .81.07 1.17.22.35.14.66.35.92.6.26.26.47.57.61.92.15.35.22.74.22 1.16 0 .42-.07.81-.22 1.16v.02Zm-26.54-5.78c.8 0 1.49.12 2.06.38h-.01c.59.26 1.06.65 1.38 1.16.32.5.48 1.1.48 1.79s-.16 1.29-.48 1.79c-.32.5-.78.89-1.37 1.16-.57.26-1.26.39-2.06.39h-1.73v2.58h-1.96v-9.25h3.69Zm-.04 4.87c.69 0 1.2-.14 1.53-.41v-.01c.32-.26.47-.63.47-1.12 0-.49-.16-.86-.47-1.12-.33-.27-.85-.41-1.53-.41h-1.69v3.07h1.69Zm15.53-1.54c0 .69-.16 1.29-.48 1.79v.02c-.29.44-.69.8-1.19 1.06l2.17 3.06h-2.24l-.02-.03-1.8-2.57h-2.09v2.59h-1.96v-9.25h3.69c.8 0 1.49.12 2.06.38.59.26 1.06.65 1.38 1.16.32.5.48 1.1.48 1.79Zm-3.96 1.55c.69 0 1.2-.14 1.53-.42.32-.26.47-.64.47-1.13 0-.49-.16-.86-.47-1.12-.33-.27-.85-.41-1.53-.41h-1.69v3.08h1.69Zm37.43-4.5c-.57-.26-1.26-.38-2.06-.38h-3.69v9.25h1.96v-2.58h1.73c.8 0 1.49-.13 2.06-.39.59-.27 1.05-.66 1.37-1.16.32-.5.48-1.1.48-1.79s-.16-1.29-.48-1.79c-.32-.51-.79-.9-1.38-1.16h.01Zm-.57 4.08c-.33.27-.84.41-1.53.41h-1.69v-3.07h1.69c.68 0 1.2.14 1.53.41.31.26.47.63.47 1.12 0 .49-.15.86-.47 1.12v.01Zm12.62.99h-4.27v1.99h4.96v1.81h-6.92v-9.25h6.75v1.8h-4.79v1.87h4.27v1.78Zm11.95-.33c.32-.5.48-1.1.48-1.79s-.16-1.29-.48-1.79c-.32-.51-.79-.9-1.38-1.16-.57-.26-1.26-.38-2.06-.38h-3.69v9.25h1.96v-2.59h2.09l1.8 2.57.02.03h2.24l-2.17-3.06c.5-.26.9-.62 1.19-1.06v-.02Zm-1.95-.66c-.33.28-.84.42-1.53.42h-1.69v-3.08h1.69c.68 0 1.2.14 1.53.41.31.26.47.63.47 1.12 0 .49-.15.87-.47 1.13Zm6.58-4.46h1.96v9.25h-1.96v-9.25Zm5.45 1.8h2.92v7.45h1.95v-7.45h2.91v-1.8h-7.78v1.8Zm14.25 2.34 2.52-4.14H150l-3.67 6.04v3.21h-1.95v-3.23l-3.67-6.02h2.18l.02.03 2.49 4.11Zm-73.42 10.6c-.36-.19-.79-.28-1.26-.28h-1.9v4.49h1.9c.47 0 .9-.09 1.26-.28.36-.19.65-.45.85-.79.2-.34.31-.73.31-1.17 0-.44-.1-.84-.31-1.17-.2-.34-.49-.6-.85-.79v-.01Zm.18 2.78c-.14.23-.33.42-.58.54-.25.13-.55.2-.9.2h-1.1v-3.11h1.1c.35 0 .65.07.9.2s.44.31.58.54c.14.23.21.51.21.82 0 .31-.07.58-.21.81Zm7.11-3.06h.77v4.49h-.77v-4.49Zm8.13 1.1c.15-.14.32-.25.53-.33.4-.16.92-.16 1.31 0 .2.08.38.2.55.36l.05.05.49-.49-.05-.05c-.21-.23-.46-.41-.75-.52-.29-.11-.62-.17-.97-.17s-.67.06-.96.17c-.29.11-.54.27-.76.48-.21.21-.38.45-.5.73-.12.28-.18.58-.18.92 0 .34.06.64.18.92s.29.52.5.73c.21.21.47.37.76.48.29.11.61.17.95.17.31 0 .62-.05.91-.14.28-.09.54-.23.75-.4h.05v-.04l.03-.02-.03-.04v-1.74h-.74v1.44c-.1.06-.2.11-.3.14-.42.14-.91.14-1.3-.01-.2-.08-.38-.19-.52-.33-.15-.14-.26-.31-.34-.51-.08-.19-.12-.41-.12-.63 0-.22.04-.44.12-.64.08-.19.2-.36.34-.5v-.03Zm9.23-1.1h.77v4.49h-.77v-4.49Zm6.62.69h1.48v3.8h.77v-3.8h1.48v-.69h-3.73v.69Zm8.67 3.8 2.03-4.49h.71l2.04 4.49h-.82l-1.58-3.6-1.58 3.6h-.8Zm11.33-.69v-3.8h-.77v4.49h3.12v-.69h-2.35Z" fill="#1C282E"/>
</svg>
