<svg width="180" height="181" fill="none" xmlns="http://www.w3.org/2000/svg">
    <mask id="a" style="mask-type:alpha" maskUnits="userSpaceOnUse" x="1" y="4" width="87" height="14">
        <path transform="matrix(1 0 0 -1 1 17.83)" fill="#D9D9D9" d="M0 0h87v12.857H0z"/>
    </mask>
    <g mask="url(#a)">
        <path d="M99 15.688s-5.731-8.572-10.8-8.572c-5.069 0-5.731 8.572-10.8 8.572-5.069 0-6.377-9.106-10.8-8.572-5.043.61-5.731 8.572-10.8 8.572-5.069 0-5.731-8.572-10.8-8.572-5.069 0-5.731 8.572-10.8 8.572-5.069 0-5.757-7.963-10.8-8.572-4.423-.534-5.731 8.572-10.8 8.572-5.069 0-5.731-8.572-10.8-8.572-5.069 0-10.8 8.572-10.8 8.572" stroke="#F7F9FA" stroke-width="2"/>
    </g>
    <mask id="b" style="mask-type:alpha" maskUnits="userSpaceOnUse" x="1" y="22" width="87" height="13">
        <path transform="matrix(1 0 0 -1 1 34.973)" fill="#D9D9D9" d="M0 0h87v12.857H0z"/>
    </mask>
    <g mask="url(#b)">
        <path d="M99 32.83s-5.731-8.571-10.8-8.571c-5.069 0-5.731 8.571-10.8 8.571-5.069 0-6.377-9.105-10.8-8.571-5.043.609-5.731 8.571-10.8 8.571-5.069 0-5.731-8.571-10.8-8.571-5.069 0-5.731 8.571-10.8 8.571-5.069 0-5.757-7.962-10.8-8.571-4.423-.534-5.731 8.571-10.8 8.571-5.069 0-5.731-8.571-10.8-8.571-5.069 0-10.8 8.571-10.8 8.571" stroke="#F7F9FA" stroke-width="2"/>
    </g>
    <mask id="c" style="mask-type:alpha" maskUnits="userSpaceOnUse" x="1" y="39" width="87" height="14">
        <path transform="matrix(1 0 0 -1 1 52.116)" fill="#D9D9D9" d="M0 0h87v12.857H0z"/>
    </mask>
    <g mask="url(#c)">
        <path d="M99 49.973s-5.731-8.571-10.8-8.571c-5.069 0-5.731 8.571-10.8 8.571-5.069 0-6.377-9.105-10.8-8.571-5.043.609-5.731 8.571-10.8 8.571-5.069 0-5.731-8.571-10.8-8.571-5.069 0-5.731 8.571-10.8 8.571-5.069 0-5.757-7.962-10.8-8.571-4.423-.535-5.731 8.571-10.8 8.571-5.069 0-5.731-8.571-10.8-8.571-5.069 0-10.8 8.571-10.8 8.571" stroke="#F7F9FA" stroke-width="2"/>
    </g>
    <mask id="d" style="mask-type:alpha" maskUnits="userSpaceOnUse" x="1" y="56" width="87" height="14">
        <path transform="matrix(1 0 0 -1 1 69.259)" fill="#D9D9D9" d="M0 0h87v12.857H0z"/>
    </mask>
    <g mask="url(#d)">
        <path d="M99 67.116s-5.731-8.571-10.8-8.571c-5.069 0-5.731 8.571-10.8 8.571-5.069 0-6.377-9.105-10.8-8.571-5.043.609-5.731 8.571-10.8 8.571-5.069 0-5.731-8.571-10.8-8.571-5.069 0-5.731 8.571-10.8 8.571-5.069 0-5.757-7.962-10.8-8.571-4.423-.534-5.731 8.571-10.8 8.571-5.069 0-5.731-8.571-10.8-8.571-5.069 0-10.8 8.571-10.8 8.571" stroke="#F7F9FA" stroke-width="2"/>
    </g>
    <mask id="e" style="mask-type:alpha" maskUnits="userSpaceOnUse" x="1" y="73" width="87" height="14">
        <path transform="matrix(1 0 0 -1 1 86.402)" fill="#D9D9D9" d="M0 0h87v12.857H0z"/>
    </mask>
    <g mask="url(#e)">
        <path d="M99 84.259s-5.731-8.571-10.8-8.571c-5.069 0-5.731 8.571-10.8 8.571-5.069 0-6.377-9.106-10.8-8.571-5.043.609-5.731 8.571-10.8 8.571-5.069 0-5.731-8.571-10.8-8.571-5.069 0-5.731 8.571-10.8 8.571-5.069 0-5.757-7.962-10.8-8.571-4.423-.535-5.731 8.571-10.8 8.571-5.069 0-5.731-8.571-10.8-8.571-5.069 0-10.8 8.571-10.8 8.571" stroke="#F7F9FA" stroke-width="2"/>
    </g>
    <path fill-rule="evenodd" clip-rule="evenodd" d="M134 27.611a7.433 7.433 0 0 0-6.393 6.63l-18.638 6.212.633 1.898 18.091-6.03a7.435 7.435 0 0 0 6.306 6.014v39.781h2v-39.78a7.434 7.434 0 0 0 6.308-6.016l18.09 6.03.633-1.897-18.637-6.212A7.433 7.433 0 0 0 136 27.61V9.26h-2v18.352Zm1 1.934a5.428 5.428 0 1 1 0 10.856 5.428 5.428 0 0 1 0-10.856Z" fill="#F7F9FA"/>
    <path fill-rule="evenodd" clip-rule="evenodd" d="M46 143.116h7.571v-2H36.43v2H44v10.83a18.208 18.208 0 0 1-11.204-4.641l.054-.053-1.414-1.415-.054.054a18.219 18.219 0 0 1-4.668-12.204c0-4.689 1.766-8.967 4.668-12.203l.054.053 1.414-1.414-.054-.053A18.209 18.209 0 0 1 44 117.429v10.83h-5.429v2H51.43v-2H46v-10.83a18.208 18.208 0 0 1 11.204 4.641l-.054.053 1.414 1.414.054-.053a18.216 18.216 0 0 1 4.668 12.203c0 4.69-1.766 8.967-4.668 12.204l-.054-.054-1.414 1.415.054.053A18.208 18.208 0 0 1 46 153.946v-10.83Zm-16.034 6.191a20.206 20.206 0 0 1-5.228-12.62H10.714v-2h14.024a20.205 20.205 0 0 1 5.228-12.619l-9.245-9.245 1.415-1.414 9.244 9.244A20.208 20.208 0 0 1 44 115.426v-14.024h2v14.024a20.208 20.208 0 0 1 12.62 5.227l9.244-9.244 1.414 1.414-9.244 9.245a20.205 20.205 0 0 1 5.227 12.619h14.025v2H65.26a20.206 20.206 0 0 1-5.227 12.62l9.244 9.245-1.414 1.414-9.244-9.245A20.203 20.203 0 0 1 46 155.949v14.024h-2v-14.024a20.203 20.203 0 0 1-12.62-5.228l-9.244 9.245-1.415-1.414 9.245-9.245Z" fill="#F7F9FA"/>
    <circle r="26" transform="matrix(-1 0 0 1 135 135.688)" fill="#01F48B"/>
</svg>
