<svg xmlns="http://www.w3.org/2000/svg" id="Layer_1" viewBox="0 0 1200 1050">
  <defs>
    <style>
      .cls-2{fill:#00f38a}.cls-3{fill:#042adb}.cls-4{fill:#1f2d33}
    </style>
  </defs>
  <path d="M1050.14 0H.14v1050h1199.72V0h-149.71ZM900.43 2h147.72v147.71H900.43V2Zm147.72 297.43H900.43V151.71h147.72v147.72Zm0 149.71H900.43V301.42h147.72v147.72Zm0 149.71H900.43V451.13h147.72v147.72Zm0 149.71H900.43V600.84h147.72v147.72Zm0 149.71H900.43V750.55h147.72v147.72Zm-896.3-147.7h147.72v147.72H151.85V750.57Zm0-149.71h147.72v147.72H151.85V600.86Zm0-149.71h147.72v147.72H151.85V451.15Zm0-149.71h147.72v147.72H151.85V301.44Zm0-149.71h147.72v147.72H151.85V151.71Zm746.58 147.72H750.71V151.71h147.72v147.72Zm0 149.71H750.71V301.44h147.72v147.72Zm0 149.71H750.71V451.15h147.72v147.72Zm0 149.71H750.71V600.86h147.72v147.72ZM301.57 600.86h147.72v147.72H301.57V600.86Zm0-149.71h147.72v147.72H301.57V451.15Zm0-149.71h147.72v147.72H301.57V301.44Zm447.15 147.72H601V301.44h147.72v147.72Zm0 149.71H601V451.15h147.72v147.72ZM451.29 451.15h147.72v147.72H451.29V451.15Zm147.72-2H451.29V301.43h147.72v147.72ZM451.29 600.86h147.72v147.72H451.29V600.86Zm149.71 0h147.72v147.72H601V600.86Zm147.72-301.43H601V151.71h147.72v147.72Zm-149.71 0H451.29V151.71h147.72v147.72Zm-149.71 0H301.58V151.71H449.3v147.72ZM301.58 750.57H449.3v147.72H301.58V750.57Zm149.71 0h147.72v147.72H451.29V750.57Zm149.71 0h147.72v147.72H601V750.57Zm149.71 0h147.72v147.72H750.71V750.57Zm0-748.57h147.72v147.71H750.71V2ZM601 2h147.72v147.71H601V2ZM451.29 2h147.72v147.71H451.29V2ZM301.58 2H449.3v147.71H301.58V2ZM151.87 2h147.72v147.71H151.85V2ZM2.14 2h147.72v147.71H2.14V2Zm0 149.71h147.72v147.72H2.14V151.71Zm0 149.71h147.72v147.72H2.14V301.42Zm0 149.71h147.72v147.72H2.14V451.13Zm0 149.71h147.72v147.72H2.14V600.84Zm0 149.71h147.72v147.72H2.14V750.55Zm147.72 297.43H2.14V900.26h147.72v147.72Zm149.71 0H151.85V900.26h147.72v147.72Zm149.71 0H301.56V900.26h147.72v147.72Zm149.71 0H451.27V900.26h147.72v147.72Zm149.71 0H600.98V900.26H748.7v147.72Zm149.71 0H750.69V900.26h147.72v147.72Zm149.71 0H900.4V900.26h147.72v147.72Zm149.71 0h-147.72V900.26h147.72v147.72Zm0-149.71h-147.72V750.55h147.72v147.72Zm0-149.71h-147.72V600.84h147.72v147.72Zm0-149.71h-147.72V451.13h147.72v147.72Zm0-149.71h-147.72V301.42h147.72v147.72Zm0-149.71h-147.72V151.71h147.72v147.72Zm-147.72-149.71V2h147.72v147.71h-147.72Z" style="fill:#f2f5f7"/>
  <path class="cls-4" d="M750.5 2.03h148v148h-148zM900.36 2.03h148v148h-148zM1049.86 901h148v148h-148zM900.36 151.74h148v44.4h-148zM900.36 210.96h148v29.6h-148zM900.36 284.94h148v14.8h-148zM900.36 255.34h148v14.8h-148z"/>
  <rect class="cls-2" x="2" y="151.57" width="148" height="148" rx="74" ry="74"/>
  <rect class="cls-2" x="1050.07" y="2.03" width="148" height="148" rx="74" ry="74"/>
  <path class="cls-3" d="M438.38 906.75c-3.14-3.1-6.7-6.6-13.61-6.6s-10.47 3.51-13.61 6.6c-3.02 2.98-5.63 5.55-11.05 5.55s-8.02-2.57-11.04-5.55c-3.14-3.1-6.7-6.6-13.6-6.6s-10.47 3.51-13.61 6.6c-3.02 2.98-5.63 5.55-11.05 5.55s-8.04-2.57-11.06-5.55c-3.14-3.1-6.71-6.6-13.62-6.6s-10.48 3.51-13.62 6.6c-3.02 2.98-5.63 5.55-11.06 5.55v3.8c6.92 0 10.48-3.51 13.62-6.6 3.02-2.98 5.63-5.55 11.06-5.55s8.04 2.57 11.06 5.55c3.14 3.1 6.71 6.6 13.62 6.6s10.47-3.51 13.62-6.6c3.02-2.98 5.63-5.55 11.05-5.55s8.02 2.57 11.04 5.55c3.14 3.1 6.7 6.6 13.6 6.6s10.47-3.51 13.61-6.6c3.02-2.98 5.63-5.55 11.05-5.55s8.03 2.57 11.05 5.55c3.14 3.1 6.7 6.6 13.61 6.6v-3.8c-5.42 0-8.03-2.57-11.05-5.55ZM424.77 1032.2c-6.91 0-10.47 3.51-13.61 6.6-3.02 2.98-5.63 5.55-11.05 5.55s-8.02-2.57-11.04-5.55c-3.14-3.1-6.7-6.6-13.6-6.6s-10.47 3.51-13.61 6.6c-3.02 2.98-5.63 5.55-11.05 5.55s-8.04-2.57-11.06-5.55c-3.14-3.1-6.71-6.6-13.62-6.6s-10.48 3.51-13.62 6.6c-3.02 2.98-5.63 5.55-11.06 5.55v3.8c6.92 0 10.48-3.51 13.62-6.6 3.02-2.98 5.63-5.55 11.06-5.55s8.04 2.57 11.06 5.55c3.14 3.1 6.71 6.6 13.62 6.6s10.47-3.51 13.62-6.6c3.02-2.98 5.63-5.55 11.05-5.55s8.02 2.57 11.04 5.55c3.14 3.1 6.7 6.6 13.6 6.6s10.47-3.51 13.61-6.6c3.02-2.98 5.63-5.55 11.05-5.55s8.03 2.57 11.05 5.55c3.14 3.1 6.7 6.6 13.61 6.6v-3.8c-5.42 0-8.03-2.57-11.05-5.55-3.14-3.1-6.7-6.6-13.61-6.6ZM424.77 988.18c-6.91 0-10.47 3.51-13.61 6.6-3.02 2.98-5.63 5.55-11.05 5.55s-8.02-2.57-11.04-5.55c-3.14-3.1-6.7-6.6-13.6-6.6s-10.47 3.51-13.61 6.6c-3.02 2.98-5.63 5.55-11.05 5.55s-8.04-2.57-11.06-5.55c-3.14-3.1-6.71-6.6-13.62-6.6s-10.48 3.51-13.62 6.6c-3.02 2.98-5.63 5.55-11.06 5.55v3.8c6.92 0 10.48-3.51 13.62-6.6 3.02-2.98 5.63-5.55 11.06-5.55s8.04 2.57 11.06 5.55c3.14 3.1 6.71 6.6 13.62 6.6s10.47-3.51 13.62-6.6c3.02-2.98 5.63-5.55 11.05-5.55s8.02 2.57 11.04 5.55c3.14 3.1 6.7 6.6 13.6 6.6s10.47-3.51 13.61-6.6c3.02-2.98 5.63-5.55 11.05-5.55s8.03 2.57 11.05 5.55c3.14 3.1 6.7 6.6 13.61 6.6v-3.8c-5.42 0-8.03-2.57-11.05-5.55-3.14-3.1-6.7-6.6-13.61-6.6ZM424.77 944.17c-6.91 0-10.47 3.51-13.61 6.6-3.02 2.98-5.63 5.55-11.05 5.55s-8.02-2.57-11.04-5.55c-3.14-3.1-6.7-6.6-13.6-6.6s-10.47 3.51-13.61 6.6c-3.02 2.98-5.63 5.55-11.05 5.55s-8.04-2.57-11.06-5.55c-3.14-3.1-6.71-6.6-13.62-6.6s-10.48 3.51-13.62 6.6c-3.02 2.98-5.63 5.55-11.06 5.55v3.8c6.92 0 10.48-3.51 13.62-6.6 3.02-2.98 5.63-5.55 11.06-5.55s8.04 2.57 11.06 5.55c3.14 3.1 6.71 6.6 13.62 6.6s10.47-3.51 13.62-6.6c3.02-2.98 5.63-5.55 11.05-5.55s8.02 2.57 11.04 5.55c3.14 3.1 6.7 6.6 13.6 6.6s10.47-3.51 13.61-6.6c3.02-2.98 5.63-5.55 11.05-5.55s8.03 2.57 11.05 5.55c3.14 3.1 6.7 6.6 13.61 6.6v-3.8c-5.42 0-8.03-2.57-11.05-5.55-3.14-3.1-6.7-6.6-13.61-6.6Z"/>
  <path class="cls-4" d="M1048.29 826.28v-3.7h-35.24c-.44-9.32-4.16-17.76-10.05-24.24l24.93-24.93-2.62-2.62-24.93 24.93c-6.47-5.89-14.92-9.61-24.24-10.05v-35.24h-3.7v35.24c-9.31.44-17.76 4.16-24.24 10.05l-24.93-24.93-2.62 2.62 24.93 24.93c-5.89 6.47-9.61 14.92-10.05 24.24h-35.24v3.7h35.24c.44 9.31 4.16 17.76 10.05 24.24l-24.93 24.93 2.62 2.62 24.93-24.93c6.47 5.89 14.92 9.61 24.24 10.05v35.24h3.7v-35.24c9.32-.44 17.76-4.16 24.24-10.05l24.93 24.93 2.62-2.62-24.93-24.93c5.89-6.47 9.61-14.92 10.05-24.24h35.24Zm-72.15 33.21v-20.26h9.25v-3.7h-22.2v3.7h9.25v20.26c-18.52-.97-33.3-16.3-33.3-35.06s14.78-34.08 33.3-35.06v20.26h-16.63v3.7h37v-3.7h-16.67v-20.26c18.52.97 33.3 16.3 33.3 35.06s-14.78 34.08-33.3 35.06ZM838.07 649.61c0-3.18-1.09-6.08-2.86-8.45l34.72-34.72-2.86-2.86-34.72 34.72c-2.37-1.77-5.27-2.86-8.45-2.86s-6.08 1.09-8.45 2.86l-34.72-34.72-2.86 2.86 34.72 34.72c-1.77 2.37-2.86 5.27-2.86 8.45s1.09 6.09 2.86 8.45l-34.72 34.72 2.86 2.86 34.72-34.72c1.85 1.39 4.04 2.31 6.43 2.66v84.99h4.05v-84.99c2.39-.35 4.58-1.27 6.43-2.66l34.72 34.72 2.86-2.86-34.72-34.72c1.77-2.37 2.86-5.27 2.86-8.45Zm-14.18 10.13c-5.58 0-10.13-4.54-10.13-10.13s4.54-10.13 10.13-10.13 10.13 4.54 10.13 10.13-4.54 10.13-10.13 10.13ZM988.46 649.61c0-3.18-1.09-6.08-2.86-8.45l34.72-34.72-2.86-2.86-34.72 34.72c-2.37-1.77-5.27-2.86-8.45-2.86s-6.08 1.09-8.45 2.86l-34.72-34.72-2.86 2.86 34.72 34.72c-1.77 2.37-2.86 5.27-2.86 8.45s1.09 6.09 2.86 8.45l-34.72 34.72 2.86 2.86 34.72-34.72c1.85 1.39 4.04 2.31 6.43 2.66v84.99h4.05v-84.99c2.39-.35 4.58-1.27 6.43-2.66l34.72 34.72 2.86-2.86-34.72-34.72c1.77-2.37 2.86-5.27 2.86-8.45Zm-14.18 10.13c-5.58 0-10.13-4.54-10.13-10.13s4.54-10.13 10.13-10.13 10.13 4.54 10.13 10.13-4.54 10.13-10.13 10.13Z"/>
</svg>