<svg xmlns="http://www.w3.org/2000/svg" viewBox="0 0 1200 1050"><defs><style>.cls-1{fill:#f2f5f7;}.cls-2{fill:#00f38a;}.cls-3{fill:#042adb;}.cls-4{fill:#1f2d33;}.cls-5{stroke-dasharray:0 0 3.89 3.89;}.cls-5,.cls-6,.cls-7,.cls-8,.cls-9{fill:none;stroke:#1f2d33;stroke-miterlimit:10;}.cls-5,.cls-7,.cls-8,.cls-9{stroke-width:4px;}.cls-6{stroke-width:5px;}.cls-7{stroke-dasharray:0 0 3.85 3.85;}.cls-9{stroke-dasharray:0 0 3.85 3.85;}</style></defs><g id="Layer_3"><path class="cls-1" d="M1050.14,0H.14V1050H1199.86V0h-149.71Zm-149.71,2h147.72V149.71h-147.72V2Zm147.72,297.43h-147.72V151.71h147.72v147.72Zm0,149.71h-147.72v-147.72h147.72v147.72Zm0,149.71h-147.72v-147.72h147.72v147.72Zm0,149.71h-147.72v-147.72h147.72v147.72Zm0,149.71h-147.72v-147.72h147.72v147.72ZM151.85,750.57h147.72v147.72H151.85v-147.72Zm0-149.71h147.72v147.72H151.85v-147.72Zm0-149.71h147.72v147.72H151.85v-147.72Zm0-149.71h147.72v147.72H151.85v-147.72Zm0-149.71h147.72v147.72H151.85V151.71Zm746.58,147.72h-147.72V151.71h147.72v147.72Zm0,149.71h-147.72v-147.72h147.72v147.72Zm0,149.71h-147.72v-147.72h147.72v147.72Zm0,149.71h-147.72v-147.72h147.72v147.72Zm-596.86-147.72h147.72v147.72h-147.72v-147.72Zm0-149.71h147.72v147.72h-147.72v-147.72Zm0-149.71h147.72v147.72h-147.72v-147.72Zm447.15,147.72h-147.72v-147.72h147.72v147.72Zm0,149.71h-147.72v-147.72h147.72v147.72Zm-297.43-147.72h147.72v147.72h-147.72v-147.72Zm147.72-2h-147.72v-147.72h147.72v147.72Zm-147.72,151.71h147.72v147.72h-147.72v-147.72Zm149.71,0h147.72v147.72h-147.72v-147.72Zm147.72-301.43h-147.72V151.71h147.72v147.72Zm-149.71,0h-147.72V151.71h147.72v147.72Zm-149.71,0h-147.72V151.71h147.72v147.72Zm-147.72,451.14h147.72v147.72h-147.72v-147.72Zm149.71,0h147.72v147.72h-147.72v-147.72Zm149.71,0h147.72v147.72h-147.72v-147.72Zm149.71,0h147.72v147.72h-147.72v-147.72Zm0-748.57h147.72V149.71h-147.72V2Zm-149.71,0h147.72V149.71h-147.72V2Zm-149.71,0h147.72V149.71h-147.72V2Zm-149.71,0h147.72V149.71h-147.72V2Zm-149.71,0h147.72V149.71H151.85V2ZM2.14,2H149.86V149.71H2.14V2Zm0,149.71H149.86v147.72H2.14V151.71Zm0,149.71H149.86v147.72H2.14v-147.72Zm0,149.71H149.86v147.72H2.14v-147.72Zm0,149.71H149.86v147.72H2.14v-147.72Zm0,149.71H149.86v147.72H2.14v-147.72Zm147.72,297.43H2.14v-147.72H149.86v147.72Zm149.71,0H151.85v-147.72h147.72v147.72Zm149.71,0h-147.72v-147.72h147.72v147.72Zm149.71,0h-147.72v-147.72h147.72v147.72Zm149.71,0h-147.72v-147.72h147.72v147.72Zm149.71,0h-147.72v-147.72h147.72v147.72Zm149.71,0h-147.72v-147.72h147.72v147.72Zm149.71,0h-147.72v-147.72h147.72v147.72Zm0-149.71h-147.72v-147.72h147.72v147.72Zm0-149.71h-147.72v-147.72h147.72v147.72Zm0-149.71h-147.72v-147.72h147.72v147.72Zm0-149.71h-147.72v-147.72h147.72v147.72Zm0-149.71h-147.72V151.71h147.72v147.72Zm-147.72-149.71V2h147.72V149.71h-147.72Z"/></g><g id="Layer_1"><rect class="cls-2" x="151.71" y="600.71" width="148" height="148" rx="74" ry="74"/><rect class="cls-2" x="451.14" y="151.57" width="148" height="148" rx="74" ry="74"/><g><path class="cls-3" d="M1037.24,8.46c-3.14-3.1-6.7-6.6-13.61-6.6s-10.47,3.51-13.61,6.6c-3.02,2.98-5.63,5.55-11.05,5.55s-8.02-2.57-11.04-5.55c-3.14-3.1-6.7-6.6-13.6-6.6s-10.47,3.51-13.61,6.6c-3.02,2.98-5.63,5.55-11.05,5.55s-8.04-2.57-11.06-5.55c-3.14-3.1-6.71-6.6-13.62-6.6s-10.48,3.51-13.62,6.6c-3.02,2.98-5.63,5.55-11.06,5.55v3.8c6.92,0,10.48-3.51,13.62-6.6,3.02-2.98,5.63-5.55,11.06-5.55s8.04,2.57,11.06,5.55c3.14,3.1,6.71,6.6,13.62,6.6s10.47-3.51,13.62-6.6c3.02-2.98,5.63-5.55,11.05-5.55s8.02,2.57,11.04,5.55c3.14,3.1,6.7,6.6,13.6,6.6s10.47-3.51,13.61-6.6c3.02-2.98,5.63-5.55,11.05-5.55s8.03,2.57,11.05,5.55c3.14,3.1,6.7,6.6,13.61,6.6v-3.8c-5.42,0-8.03-2.57-11.05-5.55Z"/><path class="cls-3" d="M1023.63,133.91c-6.91,0-10.47,3.51-13.61,6.6-3.02,2.98-5.63,5.55-11.05,5.55s-8.02-2.57-11.04-5.55c-3.14-3.1-6.7-6.6-13.6-6.6s-10.47,3.51-13.61,6.6c-3.02,2.98-5.63,5.55-11.05,5.55s-8.04-2.57-11.06-5.55c-3.14-3.1-6.71-6.6-13.62-6.6s-10.48,3.51-13.62,6.6c-3.02,2.98-5.63,5.55-11.06,5.55v3.8c6.92,0,10.48-3.51,13.62-6.6,3.02-2.98,5.63-5.55,11.06-5.55s8.04,2.57,11.06,5.55c3.14,3.1,6.71,6.6,13.62,6.6s10.47-3.51,13.62-6.6c3.02-2.98,5.63-5.55,11.05-5.55s8.02,2.57,11.04,5.55c3.14,3.1,6.7,6.6,13.6,6.6s10.47-3.51,13.61-6.6c3.02-2.98,5.63-5.55,11.05-5.55s8.03,2.57,11.05,5.55c3.14,3.1,6.7,6.6,13.61,6.6v-3.8c-5.42,0-8.03-2.57-11.05-5.55-3.14-3.1-6.7-6.6-13.61-6.6Z"/><path class="cls-3" d="M1023.63,89.89c-6.91,0-10.47,3.51-13.61,6.6-3.02,2.98-5.63,5.55-11.05,5.55s-8.02-2.57-11.04-5.55c-3.14-3.1-6.7-6.6-13.6-6.6s-10.47,3.51-13.61,6.6c-3.02,2.98-5.63,5.55-11.05,5.55s-8.04-2.57-11.06-5.55c-3.14-3.1-6.71-6.6-13.62-6.6s-10.48,3.51-13.62,6.6c-3.02,2.98-5.63,5.55-11.06,5.55v3.8c6.92,0,10.48-3.51,13.62-6.6,3.02-2.98,5.63-5.55,11.06-5.55s8.04,2.57,11.06,5.55c3.14,3.1,6.71,6.6,13.62,6.6s10.47-3.51,13.62-6.6c3.02-2.98,5.63-5.55,11.05-5.55s8.02,2.57,11.04,5.55c3.14,3.1,6.7,6.6,13.6,6.6s10.47-3.51,13.61-6.6c3.02-2.98,5.63-5.55,11.05-5.55s8.03,2.57,11.05,5.55c3.14,3.1,6.7,6.6,13.61,6.6v-3.8c-5.42,0-8.03-2.57-11.05-5.55-3.14-3.1-6.7-6.6-13.61-6.6Z"/><path class="cls-3" d="M1023.63,45.88c-6.91,0-10.47,3.51-13.61,6.6-3.02,2.98-5.63,5.55-11.05,5.55s-8.02-2.57-11.04-5.55c-3.14-3.1-6.7-6.6-13.6-6.6s-10.47,3.51-13.61,6.6c-3.02,2.98-5.63,5.55-11.05,5.55s-8.04-2.57-11.06-5.55c-3.14-3.1-6.71-6.6-13.62-6.6s-10.48,3.51-13.62,6.6c-3.02,2.98-5.63,5.55-11.06,5.55v3.8c6.92,0,10.48-3.51,13.62-6.6,3.02-2.98,5.63-5.55,11.06-5.55s8.04,2.57,11.06,5.55c3.14,3.1,6.71,6.6,13.62,6.6s10.47-3.51,13.62-6.6c3.02-2.98,5.63-5.55,11.05-5.55s8.02,2.57,11.04,5.55c3.14,3.1,6.7,6.6,13.6,6.6s10.47-3.51,13.61-6.6c3.02-2.98,5.63-5.55,11.05-5.55s8.03,2.57,11.05,5.55c3.14,3.1,6.7,6.6,13.61,6.6v-3.8c-5.42,0-8.03-2.57-11.05-5.55-3.14-3.1-6.7-6.6-13.61-6.6Z"/></g><rect class="cls-8" x="452.18" y="840.13" width="148" height="148"/><rect class="cls-8" x="542.22" y="780.57" width="148" height="148"/><line class="cls-8" x1="451.28" y1="839.77" x2="541.46" y2="780.27"/><line class="cls-8" x1="690.22" y1="780.57" x2="600.18" y2="840.13"/><line class="cls-8" x1="542.22" y1="928.12" x2="452.18" y2="987.68"/><line class="cls-8" x1="601.05" y1="988.43" x2="691.11" y2="928.89"/><rect class="cls-8" x="600.74" y="840.12" width="148" height="148"/><rect class="cls-8" x="690.78" y="780.57" width="148" height="148"/><line class="cls-8" x1="838.78" y1="780.57" x2="748.74" y2="840.12"/><line class="cls-8" x1="749.61" y1="988.42" x2="839.67" y2="928.88"/><g><rect class="cls-8" x="510.66" y="899.69" width="148" height="148"/><rect class="cls-8" x="600.71" y="840.13" width="148" height="148"/><line class="cls-8" x1="509.77" y1="899.33" x2="599.95" y2="839.83"/><line class="cls-8" x1="748.71" y1="840.13" x2="658.66" y2="899.69"/><line class="cls-8" x1="600.71" y1="988.13" x2="510.66" y2="1047.69"/><line class="cls-8" x1="659.54" y1="1047.99" x2="749.6" y2="988.45"/></g><rect class="cls-8" x="749.21" y="840.12" width="148" height="148"/><rect class="cls-8" x="839.25" y="780.57" width="148" height="148"/><line class="cls-8" x1="987.25" y1="780.57" x2="897.21" y2="840.12"/><line class="cls-8" x1="898.08" y1="988.42" x2="988.14" y2="928.88"/><g><polyline class="cls-8" points="1045.21 986.08 1045.21 988.08 1043.21 988.08"/><line class="cls-5" x1="1039.32" y1="988.08" x2="901.16" y2="988.08"/><polyline class="cls-8" points="899.21 988.08 897.21 988.08 897.21 986.08"/><line class="cls-5" x1="897.21" y1="982.18" x2="897.21" y2="844.02"/><polyline class="cls-8" points="897.21 842.08 897.21 840.08 899.21 840.08"/><line class="cls-5" x1="903.1" y1="840.08" x2="1041.26" y2="840.08"/><polyline class="cls-8" points="1043.21 840.08 1045.21 840.08 1045.21 842.08"/><line class="cls-5" x1="1045.21" y1="845.97" x2="1045.21" y2="984.13"/></g><g><polyline class="cls-8" points="1135.26 926.52 1135.26 928.52 1133.26 928.52"/><line class="cls-5" x1="1129.37" y1="928.52" x2="991.2" y2="928.52"/><polyline class="cls-8" points="989.26 928.52 987.26 928.52 987.26 926.52"/><line class="cls-5" x1="987.26" y1="922.63" x2="987.26" y2="784.46"/><polyline class="cls-8" points="987.26 782.52 987.26 780.52 989.26 780.52"/><line class="cls-5" x1="993.15" y1="780.52" x2="1131.31" y2="780.52"/><polyline class="cls-8" points="1133.26 780.52 1135.26 780.52 1135.26 782.52"/><line class="cls-5" x1="1135.26" y1="786.41" x2="1135.26" y2="924.57"/></g><g><line class="cls-8" x1="1135.26" y1="780.52" x2="1133.59" y2="781.62"/><line class="cls-7" x1="1130.38" y1="783.75" x2="1048.48" y2="837.91"/><line class="cls-8" x1="1046.88" y1="838.97" x2="1045.21" y2="840.08"/></g><g><line class="cls-8" x1="1046.08" y1="988.38" x2="1047.75" y2="987.27"/><line class="cls-9" x1="1050.96" y1="985.15" x2="1132.87" y2="931"/><line class="cls-8" x1="1134.47" y1="929.94" x2="1136.14" y2="928.84"/></g><g><line class="cls-6" x1="760.73" y1="391.12" x2="872.17" y2="502.55"/><line class="cls-6" x1="760.73" y1="668.95" x2="872.89" y2="556.8"/><line class="cls-6" x1="1038.57" y1="668.95" x2="926.41" y2="556.8"/><line class="cls-6" x1="1038.57" y1="391.12" x2="926.4" y2="503.29"/></g><circle class="cls-6" cx="899.65" cy="530.04" r="37.85"/><line class="cls-6" x1="899.65" y1="567.89" x2="899.65" y2="838.27"/></g><g id="Layer_4"><polygon class="cls-4" points="482.57 961.94 482.57 851.33 549.87 806.82 660.48 806.82 660.48 917.43 593.83 962.17 482.57 961.94"/><polygon class="cls-4" points="780.41 961.94 780.41 851.33 847.71 806.82 958.31 806.82 958.31 917.43 891.67 962.17 780.41 961.94"/></g></svg>