<svg width="90" height="91" fill="none" xmlns="http://www.w3.org/2000/svg">
    <mask id="a" style="mask-type:alpha" maskUnits="userSpaceOnUse" x="1" y="4" width="87" height="14">
        <path transform="matrix(1 0 0 -1 1 17.528)" fill="#D9D9D9" d="M0 0h87v12.857H0z"/>
    </mask>
    <g mask="url(#a)">
        <path d="M99 15.385s-5.731-8.572-10.8-8.572c-5.069 0-5.731 8.572-10.8 8.572-5.069 0-6.377-9.106-10.8-8.572-5.043.61-5.731 8.572-10.8 8.572-5.069 0-5.731-8.572-10.8-8.572-5.069 0-5.731 8.572-10.8 8.572-5.069 0-5.757-7.963-10.8-8.572-4.423-.534-5.731 8.572-10.8 8.572-5.069 0-5.731-8.572-10.8-8.572-5.069 0-10.8 8.572-10.8 8.572" stroke="#0027C6" stroke-width="2"/>
    </g>
    <mask id="b" style="mask-type:alpha" maskUnits="userSpaceOnUse" x="1" y="21" width="87" height="14">
        <path transform="matrix(1 0 0 -1 1 34.67)" fill="#D9D9D9" d="M0 0h87v12.857H0z"/>
    </mask>
    <g mask="url(#b)">
        <path d="M99 32.528s-5.731-8.572-10.8-8.572c-5.069 0-5.731 8.572-10.8 8.572-5.069 0-6.377-9.106-10.8-8.572-5.043.61-5.731 8.572-10.8 8.572-5.069 0-5.731-8.572-10.8-8.572-5.069 0-5.731 8.572-10.8 8.572-5.069 0-5.757-7.963-10.8-8.572-4.423-.534-5.731 8.572-10.8 8.572-5.069 0-5.731-8.572-10.8-8.572-5.069 0-10.8 8.572-10.8 8.572" stroke="#0027C6" stroke-width="2"/>
    </g>
    <mask id="c" style="mask-type:alpha" maskUnits="userSpaceOnUse" x="1" y="38" width="87" height="14">
        <path transform="matrix(1 0 0 -1 1 51.813)" fill="#D9D9D9" d="M0 0h87v12.857H0z"/>
    </mask>
    <g mask="url(#c)">
        <path d="M99 49.67s-5.731-8.57-10.8-8.57c-5.069 0-5.731 8.57-10.8 8.57-5.069 0-6.377-9.105-10.8-8.57-5.043.608-5.731 8.57-10.8 8.57-5.069 0-5.731-8.57-10.8-8.57-5.069 0-5.731 8.57-10.8 8.57-5.069 0-5.757-7.962-10.8-8.57-4.423-.535-5.731 8.57-10.8 8.57-5.069 0-5.731-8.57-10.8-8.57-5.069 0-10.8 8.57-10.8 8.57" stroke="#0027C6" stroke-width="2"/>
    </g>
    <mask id="d" style="mask-type:alpha" maskUnits="userSpaceOnUse" x="1" y="56" width="87" height="13">
        <path transform="matrix(1 0 0 -1 1 68.956)" fill="#D9D9D9" d="M0 0h87v12.857H0z"/>
    </mask>
    <g mask="url(#d)">
        <path d="M99 66.813s-5.731-8.571-10.8-8.571c-5.069 0-5.731 8.571-10.8 8.571-5.069 0-6.377-9.105-10.8-8.571-5.043.609-5.731 8.571-10.8 8.571-5.069 0-5.731-8.571-10.8-8.571-5.069 0-5.731 8.571-10.8 8.571-5.069 0-5.757-7.962-10.8-8.571-4.423-.534-5.731 8.571-10.8 8.571-5.069 0-5.731-8.571-10.8-8.571-5.069 0-10.8 8.571-10.8 8.571" stroke="#0027C6" stroke-width="2"/>
    </g>
    <mask id="e" style="mask-type:alpha" maskUnits="userSpaceOnUse" x="1" y="73" width="87" height="14">
        <path transform="matrix(1 0 0 -1 1 86.099)" fill="#D9D9D9" d="M0 0h87v12.857H0z"/>
    </mask>
    <g mask="url(#e)">
        <path d="M99 83.956s-5.731-8.571-10.8-8.571c-5.069 0-5.731 8.571-10.8 8.571-5.069 0-6.377-9.105-10.8-8.571-5.043.609-5.731 8.571-10.8 8.571-5.069 0-5.731-8.571-10.8-8.571-5.069 0-5.731 8.571-10.8 8.571-5.069 0-5.757-7.962-10.8-8.571-4.423-.534-5.731 8.571-10.8 8.571-5.069 0-5.731-8.571-10.8-8.571-5.069 0-10.8 8.571-10.8 8.571" stroke="#0027C6" stroke-width="2"/>
    </g>
</svg>
