<svg width="90" height="91" fill="none" xmlns="http://www.w3.org/2000/svg">
    <path fill-rule="evenodd" clip-rule="evenodd" d="M46 52.813h7.572v-2H36.428v2H44v10.83a18.213 18.213 0 0 1-11.203-4.64l.053-.054-1.414-1.414-.054.053a18.218 18.218 0 0 1-4.668-12.203c0-4.69 1.766-8.967 4.668-12.204l.054.054 1.414-1.414-.053-.054A18.212 18.212 0 0 1 44 27.126v10.83h-5.428v2h12.857v-2H46v-10.83a18.213 18.213 0 0 1 11.204 4.641l-.054.054 1.414 1.414.054-.054a18.218 18.218 0 0 1 4.668 12.204c0 4.69-1.766 8.967-4.668 12.203l-.054-.053-1.414 1.414.054.054A18.213 18.213 0 0 1 46 63.643v-10.83Zm-16.034 6.191a20.206 20.206 0 0 1-5.227-12.62H10.714v-2H24.74a20.206 20.206 0 0 1 5.227-12.619l-9.245-9.245 1.415-1.414 9.244 9.245A20.206 20.206 0 0 1 44 25.123V11.1h2v14.024a20.206 20.206 0 0 1 12.62 5.228l9.244-9.245 1.415 1.414-9.245 9.245a20.206 20.206 0 0 1 5.228 12.62h14.024v2H65.262a20.206 20.206 0 0 1-5.228 12.62l9.245 9.244-1.415 1.414-9.244-9.244A20.206 20.206 0 0 1 46 65.646v14.025h-2V65.645a20.206 20.206 0 0 1-12.62-5.227l-9.244 9.244-1.415-1.414 9.245-9.244Z" fill="#1F2D33"/>
</svg>
