<?xml version="1.0" standalone="no"?>
<!DOCTYPE svg PUBLIC "-//W3C//DTD SVG 20010904//EN">
<svg version="1.0" xmlns="http://www.w3.org/2000/svg"
 width="1024.000000pt" height="1024.000000pt" viewBox="0 0 1024.000000 1024.000000"
 preserveAspectRatio="xMidYMid meet">
<g transform="translate(0.000000,1024.000000) scale(0.100000,-0.100000)"
fill="#000000" stroke="none">
<path d="M3080 9545 c0 -549 -3 -695 -12 -696 -7 0 -412 -1 -900 -1 l-888 -1
0 -3704 0 -3703 33 -1 c17 -1 37 0 42 1 6 1 46 1 90 1 44 -1 103 -1 130 0 28
0 55 1 60 0 6 0 55 0 110 0 55 -1 141 -1 190 -2 50 -1 96 -1 103 0 26 2 40 2
162 2 230 -2 285 -2 335 0 28 0 56 1 63 0 40 -1 221 -1 300 1 50 2 92 1 92 -2
0 -3 19 -5 42 -5 l43 0 3 -718 2 -717 417 2 417 3 0 3093 0 3092 75 1 c42 0
218 2 391 4 173 2 333 4 355 5 22 0 49 -1 60 -3 11 -2 34 -1 51 3 17 4 38 3
47 -1 9 -6 18 -5 22 0 3 6 15 7 28 2 12 -5 31 -6 42 -2 39 13 420 3 485 -12
60 -14 82 -21 135 -38 80 -27 174 -72 240 -113 242 -156 425 -435 473 -726 11
-68 6 -319 -7 -370 -6 -25 -14 -58 -17 -75 -3 -16 -11 -36 -16 -43 -6 -6 -8
-12 -5 -12 14 0 -88 -215 -119 -251 -8 -8 -14 -19 -14 -22 0 -25 -190 -213
-265 -264 -111 -74 -259 -142 -346 -159 -46 -8 -64 -12 -64 -14 0 -7 -89 -11
-325 -15 -151 -2 -277 -4 -280 -4 -4 -1 -5 -4015 -1 -4068 1 -10 91 -13 416
-13 l415 0 0 733 0 733 42 3 c23 1 44 4 48 6 3 2 33 7 65 10 33 4 63 9 67 11
4 3 24 7 45 9 34 4 68 10 98 19 9 2 80 18 95 21 3 1 16 4 30 8 14 4 43 13 65
19 52 14 166 48 185 55 8 3 20 7 25 9 19 4 180 65 210 78 17 8 64 28 105 46
41 18 108 50 148 71 39 21 72 35 72 31 0 -4 4 -2 8 4 4 5 38 27 76 48 38 20
94 53 125 74 31 20 59 35 64 34 4 -1 7 2 7 6 0 4 15 16 33 27 31 18 192 134
232 166 207 170 390 344 495 468 25 29 54 63 65 76 70 79 168 210 246 330 91
139 101 155 122 195 11 19 31 55 45 80 47 84 166 330 169 350 1 3 7 19 13 35
7 17 16 39 20 50 39 98 52 136 55 151 2 11 4 20 5 22 2 1 3 5 4 10 1 4 12 37
24 73 12 36 24 74 27 85 2 10 15 64 29 119 13 55 27 114 30 130 2 17 7 41 11
55 3 14 8 41 11 60 2 19 7 46 9 60 8 44 15 94 20 145 3 28 8 82 12 120 8 70
10 500 3 585 -3 42 -24 222 -35 300 -2 19 -10 59 -16 89 -6 30 -12 64 -14 75
-1 12 -13 64 -25 116 -13 52 -25 107 -27 123 -3 15 -10 27 -16 27 -6 0 -8 3
-4 6 3 3 -1 27 -9 52 -8 26 -16 52 -18 57 -53 194 -210 546 -343 768 -68 112
-174 271 -185 275 -4 2 -8 8 -8 13 0 8 -11 24 -45 63 -5 6 -21 27 -35 46 -27
39 -35 48 -143 171 -157 178 -332 342 -517 483 -99 76 -286 206 -296 206 -3 0
-18 9 -34 20 -71 50 -488 263 -520 265 -3 0 -26 8 -50 19 -73 30 -83 34 -125
47 -22 7 -42 14 -45 14 -3 1 -14 5 -25 9 -47 18 -165 53 -205 61 -8 2 -43 10
-78 19 -71 19 -143 34 -187 41 -16 2 -41 7 -55 10 -14 3 -63 10 -110 16 -47 6
-87 13 -89 15 -2 2 -5 320 -5 706 l-1 703 -415 3 -415 2 0 -1112 c0 -1106 0
-1113 20 -1115 11 -1 157 -5 325 -7 341 -5 398 -9 515 -33 17 -3 39 -7 50 -9
91 -12 339 -76 410 -104 11 -4 47 -18 80 -30 286 -105 564 -266 828 -479 52
-42 228 -212 295 -285 197 -216 399 -534 506 -796 15 -36 31 -74 37 -85 9 -21
88 -258 94 -285 2 -8 13 -55 25 -104 12 -49 23 -103 26 -120 2 -17 6 -42 9
-56 3 -14 8 -43 11 -65 3 -22 7 -53 9 -70 31 -214 21 -624 -21 -830 -3 -11 -7
-36 -10 -55 -23 -146 -119 -459 -181 -590 -10 -19 -18 -41 -19 -49 -2 -7 -7
-18 -13 -24 -6 -6 -11 -19 -11 -28 0 -10 -3 -19 -7 -21 -5 -1 -30 -46 -57 -98
-27 -52 -83 -147 -125 -210 -42 -63 -78 -119 -80 -125 -2 -5 -7 -12 -11 -15
-3 -3 -19 -23 -36 -45 -31 -42 -34 -46 -142 -170 -101 -117 -278 -280 -397
-368 -27 -20 -55 -41 -62 -47 -62 -52 -425 -263 -473 -275 -3 -1 -23 -9 -45
-19 -179 -79 -388 -147 -562 -182 -65 -12 -81 -15 -118 -20 l-40 -5 1 478 c1
263 2 485 3 494 1 11 24 21 78 34 43 10 85 21 93 26 8 4 38 15 65 24 70 24
250 111 313 151 29 19 56 34 61 34 5 0 11 4 13 8 2 5 26 24 54 43 114 76 260
215 379 360 44 53 75 98 75 108 0 5 6 14 13 18 8 4 17 15 20 23 4 8 16 29 27
45 10 17 42 77 71 135 28 58 57 116 64 130 14 29 55 146 61 174 2 10 8 33 14
51 11 33 14 46 30 125 10 54 18 103 28 191 9 70 8 315 -2 389 -9 78 -19 140
-30 185 -10 46 -28 121 -31 130 -1 6 -3 13 -4 17 -13 66 -130 334 -186 423
-14 22 -30 51 -37 65 -7 14 -15 27 -18 30 -3 3 -32 41 -65 85 -33 44 -67 87
-75 95 -8 9 -38 41 -65 71 -28 29 -84 83 -125 119 -41 36 -77 67 -80 70 -11
12 -139 99 -196 133 -81 49 -220 117 -238 117 -8 0 -16 3 -18 8 -2 6 -109 48
-143 56 -5 2 -30 8 -55 15 -25 7 -53 15 -62 17 -10 2 -28 6 -40 9 -101 23
-193 36 -293 40 -38 2 -70 4 -70 5 0 1 -15 2 -33 3 -17 1 -32 -2 -32 -6 0 -4
-8 -3 -18 2 -10 5 -24 6 -33 1 -8 -5 -21 -5 -28 -1 -7 5 -30 5 -52 1 -22 -4
-39 -3 -39 2 0 5 -5 6 -12 2 -6 -4 -171 -8 -367 -10 -861 -6 -1615 -15 -1620
-20 -3 -2 -5 -1070 -5 -2372 l0 -2367 -480 0 -481 0 -1 2868 0 2867 898 0
c711 0 898 3 899 13 1 6 2 508 2 1115 l2 1102 -417 0 -418 0 0 -695z"/>
</g>
</svg>
